<svg id="Layer_1" data-name="Layer 1" xmlns="http://www.w3.org/2000/svg" viewBox="0 0 512 512"><defs><style>.cls-1{fill:#70524d;}.cls-2{fill:#e5decf;}.cls-3{fill:#bcb09b;}.cls-4{opacity:0.1;}.cls-5{fill:#231f20;}</style></defs><title>bear-flat</title><path class="cls-1" d="M470.08,184.9a234.53,234.53,0,0,1,19.52,93.5C489.6,407.23,384.83,512,256,512S22.4,407.23,22.4,278.4a234.53,234.53,0,0,1,19.52-93.5A102.36,102.36,0,1,1,192.45,53.57a234.7,234.7,0,0,1,127.1,0A102.39,102.39,0,1,1,470.08,184.9Z"/><ellipse class="cls-2" cx="256" cy="374.4" rx="147.2" ry="118.4"/><circle class="cls-2" cx="192" cy="192" r="19.2"/><circle class="cls-2" cx="320" cy="192" r="19.2"/><path class="cls-3" d="M331.17,392.93a19.2,19.2,0,0,0-26.49-6,20,20,0,0,1-10.28,3.42,21.2,21.2,0,0,1-11.69-3.51,23.12,23.12,0,0,1-4.32-3.56,23.76,23.76,0,0,1-3.19-4.06V345.6a19.2,19.2,0,1,0-38.4,0V379a29.65,29.65,0,0,1-3.68,4.1,28.35,28.35,0,0,1-5.25,3.92c-8.07,5.1-15.6,4-21.75.05a19.2,19.2,0,0,0-20.7,32.34,59.58,59.58,0,0,0,32.17,9.43A57.28,57.28,0,0,0,248,419.7a66.4,66.4,0,0,0,7.55-5.24,56.9,56.9,0,0,0,6.7,4.92,59.58,59.58,0,0,0,32.18,9.43,57.83,57.83,0,0,0,30.81-9.38A19.2,19.2,0,0,0,331.17,392.93Z"/><ellipse class="cls-1" cx="256" cy="320" rx="44.8" ry="32"/><g class="cls-4"><path class="cls-5" d="M470.08,184.9a234.53,234.53,0,0,1,19.52,93.5C489.6,407.23,384.83,512,256,512V44.8a234,234,0,0,1,63.55,8.77A102.39,102.39,0,1,1,470.08,184.9Z"/></g></svg>